<svg aria-hidden="true" style="position: absolute; width: 0; height: 0; overflow: hidden;" version="1.1" xmlns="http://www.w3.org/2000/svg" xmlns:xlink="http://www.w3.org/1999/xlink">
<defs>
<symbol id="icon-youtube" viewBox="0 0 46 32">
<path fill="#fff" style="fill: var(--color1, #fff)" opacity="0.5" d="M44.565 4.992c0.171 0.661 0.32 1.493 0.427 2.496 0.171 1.003 0.277 2.005 0.341 3.008 0.043 0.939 0.064 1.835 0.064 2.667 0.064 0.832 0.085 1.515 0.085 2.069v0.768c0 4.992-0.299 8.683-0.917 11.072-0.277 0.939-0.768 1.771-1.493 2.496s-1.579 1.237-2.581 1.515c-1.067 0.277-3.051 0.491-5.995 0.661-2.944 0.107-5.653 0.192-8.085 0.256h-3.669c-9.493 0-15.424-0.32-17.749-0.917-2.176-0.619-3.52-1.963-4.096-4.011-0.277-1.045-0.491-2.496-0.661-4.331-0.107-1.899-0.192-3.477-0.235-4.757v-1.984c0-4.949 0.299-8.619 0.896-11.008 0.277-1.003 0.789-1.856 1.515-2.581s1.579-1.237 2.581-1.515c1.045-0.277 3.051-0.469 5.995-0.576 2.944-0.171 5.632-0.277 8.085-0.32h3.669c9.493 0 15.424 0.299 17.749 0.896 1.003 0.277 1.856 0.789 2.581 1.515s1.216 1.579 1.493 2.581zM18.069 22.827l11.925-6.827-11.925-6.763v13.589z"></path>
</symbol>
<symbol id="icon-telegram" viewBox="0 0 38 32">
<path fill="#fff" style="fill: var(--color1, #fff)" opacity="0.5" d="M38.050 2.942l-5.797 27.088c-0.458 1.918-1.504 2.441-3.138 1.525l-8.782-6.472-4.25 4.097c-0.567 0.567-1.155 0.85-1.787 0.85l0.676-8.957 16.257-14.623c0.414-0.414 0.414-0.632 0-0.697-0.327-0.109-0.697-0.022-1.090 0.261l-20.093 12.683-8.695-2.724c-0.959-0.283-1.417-0.719-1.351-1.286 0.044-0.567 0.654-1.046 1.787-1.438l33.8-13.119c0.85-0.283 1.525-0.153 2.027 0.349 0.523 0.458 0.654 1.286 0.436 2.463z"></path>
</symbol>
<symbol id="icon-facebook" viewBox="0 0 17 32">
<path fill="#fff" style="fill: var(--color1, #fff)" opacity="0.5" d="M16 18h-4.688v14h-6.256v-14h-5.056v-5.824h5.056v-4.368c0-1.664 0.304-3.088 0.944-4.256 0.624-1.168 1.488-2.032 2.624-2.624 1.152-0.624 2.496-0.928 4-0.928 0.656 0 1.376 0.032 2.112 0.112 0.752 0.048 1.344 0.112 1.76 0.192l0.624 0.064v4.944h-2.496c-1.168 0-2.032 0.304-2.576 0.928-0.496 0.592-0.736 1.312-0.736 2.192v3.744h5.552l-0.864 5.824z"></path>
</symbol>
<symbol id="icon-instagram" viewBox="0 0 32 32">
<path fill="#fff" style="fill: var(--color1, #fff)" opacity="0.5" d="M10.13 10.203c1.627-1.609 3.584-2.432 5.87-2.432s4.206 0.823 5.778 2.432c1.609 1.573 2.432 3.511 2.432 5.797s-0.823 4.224-2.432 5.851c-1.573 1.573-3.493 2.359-5.778 2.359s-4.242-0.786-5.87-2.359c-1.573-1.627-2.359-3.566-2.359-5.851s0.786-4.224 2.359-5.797zM12.197 19.785c1.061 1.042 2.322 1.554 3.803 1.554 1.463 0 2.725-0.512 3.785-1.554 1.042-1.061 1.554-2.322 1.554-3.785 0-1.481-0.512-2.743-1.554-3.803-1.061-1.042-2.322-1.554-3.785-1.554-1.481 0-2.743 0.512-3.803 1.554-1.042 1.061-1.554 2.322-1.554 3.803 0 1.463 0.512 2.725 1.554 3.785zM25.856 6.126c0.366 0.347 0.567 0.768 0.567 1.298 0 0.512-0.201 0.969-0.567 1.353-0.347 0.384-0.768 0.567-1.298 0.567-0.512 0-0.969-0.183-1.353-0.567s-0.567-0.841-0.567-1.353c0-0.53 0.183-0.951 0.567-1.298 0.384-0.366 0.841-0.567 1.353-0.567 0.53 0 0.951 0.201 1.298 0.567zM31.927 9.417c0.037 1.28 0.073 3.474 0.073 6.583 0 3.090-0.037 5.285-0.073 6.565-0.146 2.907-1.024 5.157-2.651 6.784-1.573 1.573-3.803 2.395-6.711 2.505-1.28 0.091-3.474 0.146-6.565 0.146-3.109 0-5.303-0.055-6.583-0.146-2.907-0.146-5.138-1.006-6.711-2.578-0.622-0.567-1.115-1.243-1.499-1.993-0.384-0.768-0.677-1.499-0.859-2.213-0.146-0.713-0.219-1.554-0.219-2.505-0.091-1.28-0.128-3.474-0.128-6.565 0-3.109 0.037-5.321 0.128-6.656 0.146-2.853 1.006-5.065 2.578-6.638 1.573-1.627 3.803-2.505 6.711-2.651 1.28-0.037 3.474-0.055 6.583-0.055 3.090 0 5.285 0.018 6.565 0.055 2.907 0.146 5.138 1.024 6.711 2.651 1.627 1.573 2.505 3.803 2.651 6.711zM28.489 25.417c0.146-0.384 0.256-0.859 0.366-1.426 0.091-0.622 0.165-1.335 0.201-2.139 0.055-0.859 0.073-1.554 0.073-2.066 0-0.53 0-1.262 0-2.231 0-0.951 0-1.463 0-1.554 0-0.146 0-0.677 0-1.573 0-0.969 0-1.701 0-2.231 0-0.512-0.018-1.189-0.073-1.993-0.037-0.859-0.11-1.573-0.201-2.139-0.11-0.622-0.219-1.115-0.366-1.499-0.567-1.481-1.591-2.505-3.072-3.072-0.384-0.146-0.878-0.256-1.499-0.366-0.567-0.091-1.28-0.165-2.139-0.201-0.805-0.055-1.481-0.073-1.993-0.073-0.494 0-1.225 0-2.231 0-0.951 0-1.463 0-1.554 0-0.11 0-0.622 0-1.573 0-0.969 0-1.701 0-2.231 0-0.512 0-1.207 0.018-2.066 0.073-0.805 0.037-1.518 0.11-2.139 0.201-0.567 0.11-1.042 0.219-1.426 0.366-1.481 0.567-2.505 1.591-3.072 3.072-0.146 0.384-0.256 0.878-0.366 1.499-0.091 0.567-0.165 1.28-0.201 2.139-0.055 0.805-0.073 1.481-0.073 1.993 0 0.494 0 1.225 0 2.231 0 0.951 0 1.463 0 1.573 0 0.183 0 0.64 0 1.353 0 0.658 0 1.225 0 1.701 0 0.439 0 1.006 0 1.719 0.037 0.713 0.091 1.335 0.146 1.865 0.037 0.475 0.11 0.969 0.201 1.499 0.091 0.512 0.201 0.951 0.293 1.28 0.622 1.481 1.646 2.505 3.072 3.072 0.384 0.146 0.859 0.256 1.426 0.366 0.622 0.091 1.335 0.165 2.139 0.201 0.859 0.055 1.536 0.073 2.011 0.073 0.512 0 1.262 0 2.213 0 0.987 0 1.536 0 1.646 0 0.128 0 0.658 0 1.554 0 0.969 0 1.701 0 2.231 0 0.512 0 1.189-0.018 1.993-0.073 0.859-0.037 1.573-0.11 2.139-0.201 0.622-0.11 1.115-0.219 1.499-0.366 1.481-0.622 2.505-1.646 3.072-3.072z"></path>
</symbol>
<symbol id="icon-arrow-yelow" viewBox="0 0 177 32">
<path fill="none" stroke="#ffac30" style="stroke: var(--color2, #ffac30)" stroke-linejoin="miter" stroke-linecap="butt" stroke-miterlimit="4" stroke-width="1.4655" d="M152.409 0.601l23.448 15.387-23.448 15.387"></path>
<path fill="none" stroke="#ffac30" style="stroke: var(--color2, #ffac30)" stroke-linejoin="miter" stroke-linecap="butt" stroke-miterlimit="4" stroke-width="1.4655" d="M0 16h146.547"></path>
</symbol>
<symbol id="icon-phone" viewBox="0 0 32 32">
<path fill="#ffac30" style="fill: var(--color1, #ffac30)" d="M30.393 23.949c-0.138-0.43-1.151-0.89-1.565-1.089-1.166-0.66-2.363-1.304-3.513-1.979-0.522-0.322-1.181-0.936-1.826-0.936-1.243 0-3.084 3.713-4.188 3.713-0.552 0-1.273-0.522-1.764-0.798-3.744-2.087-6.336-4.664-8.408-8.408-0.291-0.491-0.798-1.212-0.798-1.764 0-1.12 3.713-2.946 3.713-4.188 0-0.644-0.614-1.304-0.936-1.841-0.69-1.151-1.319-2.332-1.979-3.513-0.199-0.399-0.66-1.411-1.089-1.55-0.138-0.061-0.292-0.061-0.43-0.061-0.736 0-2.179 0.322-2.854 0.629-1.013 0.43-1.672 1.58-2.179 2.501-0.66 1.212-1.043 2.455-1.043 3.836 0 1.902 0.767 3.636 1.411 5.37 0.445 1.258 1.013 2.47 1.703 3.605 2.163 3.483 6.367 7.702 9.865 9.865 1.135 0.69 2.347 1.243 3.59 1.703 1.749 0.629 3.483 1.412 5.385 1.412 1.381 0 2.608-0.384 3.82-1.043 0.936-0.522 2.087-1.166 2.516-2.179 0.307-0.675 0.629-2.117 0.629-2.854 0-0.153 0-0.291-0.061-0.43zM8.592 0.153q0.476 0.184 0.859 0.598 0.23 0.245 0.46 0.598 0.215 0.353 0.522 0.982 0.031 0.061 0.046 0.107 0.23 0.384 0.644 1.151 0.859 1.55 1.289 2.271 0.046 0.092 0.23 0.338 0.368 0.537 0.552 0.859 0.384 0.736 0.384 1.442 0 0.031 0 0.061-0.015 0.629-0.384 1.243-0.245 0.399-0.66 0.813-0.291 0.307-0.721 0.675-0.245 0.215-0.752 0.614-0.828 0.675-1.089 0.936 0 0 0 0.015 0.092 0.184 0.291 0.522 0.138 0.199 0.199 0.322 1.458 2.624 3.329 4.495t4.511 3.329q0.107 0.061 0.307 0.184 0.338 0.215 0.522 0.307 0 0 0 0 0.276-0.276 0.951-1.105 0.399-0.491 0.598-0.736 0.384-0.43 0.675-0.721 0.43-0.414 0.828-0.66 0.614-0.368 1.243-0.384 0.031 0 0.061 0 0.706 0 1.442 0.384 0.322 0.169 0.859 0.552 0.245 0.169 0.307 0.215 0.752 0.445 2.301 1.304 0.752 0.414 1.151 0.629 0.046 0.015 0.107 0.046 0.629 0.322 0.982 0.537 0.353 0.23 0.598 0.46 0.414 0.384 0.598 0.859 0.107 0.276 0.138 0.598 0.015 0.153 0.015 0.384 0 0.721-0.23 1.78-0.245 1.043-0.522 1.672-0.445 1.043-1.55 1.887-0.368 0.291-0.859 0.583-0.291 0.184-0.782 0.46-1.089 0.598-2.163 0.89-0.782 0.23-1.596 0.307-0.399 0.031-0.798 0.031-1.289 0-2.762-0.399-0.552-0.153-1.227-0.399-0.384-0.138-1.135-0.414-0.522-0.199-0.782-0.291-2.148-0.782-3.882-1.841-1.365-0.859-2.869-2.087-1.442-1.181-2.838-2.562-1.396-1.396-2.577-2.838-1.227-1.504-2.071-2.884-1.059-1.718-1.841-3.866-0.092-0.261-0.292-0.782-0.291-0.752-0.414-1.151-0.245-0.66-0.399-1.227-0.399-1.458-0.399-2.746 0-0.414 0.031-0.813 0.077-0.798 0.291-1.58 0.307-1.074 0.905-2.179 0.276-0.491 0.46-0.782 0.292-0.476 0.583-0.859 0.844-1.089 1.841-1.519 0.66-0.307 1.703-0.537 1.074-0.23 1.795-0.23 0.23 0 0.384 0.015 0.307 0.031 0.598 0.138z"></path>
</symbol>
<symbol id="icon-map-pin" viewBox="0 0 23 32">
<path fill="#ffac30" style="fill: var(--color1, #ffac30)" d="M12.26 30.971c-0.264 0.339-0.527 0.678-0.791 1.029-0.276-0.351-0.54-0.69-0.803-1.029-5.71-7.379-10.667-13.453-10.667-19.501 0-6.337 5.133-11.47 11.47-11.47s11.47 5.133 11.47 11.47c0 6.049-4.969 12.122-10.679 19.501zM11.47 29.942q0.314-0.414 0.69-0.891 1.318-1.707 1.945-2.522 1.042-1.355 1.807-2.409 1.895-2.573 3.049-4.543 1.343-2.271 2.008-4.204 0.715-2.058 0.715-3.903 0-1.167-0.251-2.271-0.201-0.878-0.552-1.707-0.364-0.853-0.866-1.619-0.565-0.878-1.33-1.631-0.753-0.753-1.631-1.33-0.753-0.502-1.606-0.866-0.841-0.351-1.707-0.54-1.117-0.251-2.271-0.251-1.167 0-2.271 0.251-0.878 0.188-1.707 0.54-0.853 0.364-1.619 0.866-0.878 0.577-1.631 1.33t-1.33 1.631q-0.502 0.766-0.866 1.619-0.351 0.828-0.54 1.707-0.251 1.104-0.251 2.271 0 1.845 0.703 3.903 0.665 1.933 2.008 4.204 1.167 1.97 3.049 4.543 0.778 1.054 1.807 2.409 0.627 0.816 1.945 2.522 0.376 0.477 0.703 0.891z"></path>
<path fill="none" stroke="#ffac30" style="stroke: var(--color1, #ffac30)" stroke-linejoin="miter" stroke-linecap="butt" stroke-miterlimit="4" stroke-width="1.2549" d="M16.278 11.472c0 2.655-2.152 4.806-4.806 4.806s-4.806-2.152-4.806-4.806c0-2.655 2.152-4.806 4.806-4.806s4.806 2.152 4.806 4.806z"></path>
</symbol>
<symbol id="icon-email" viewBox="0 0 38 32">
<path fill="none" stroke="#ffac30" style="stroke: var(--color1, #ffac30)" stroke-linejoin="miter" stroke-linecap="butt" stroke-miterlimit="4" stroke-width="1.5055" d="M6.775 5.654h24.087c3.326 0 6.022 2.696 6.022 6.022v13.549c0 3.326-2.696 6.022-6.022 6.022h-24.087c-3.326 0-6.022-2.696-6.022-6.022v-13.549c0-3.326 2.696-6.022 6.022-6.022z"></path>
<path fill="none" stroke="#ffac30" style="stroke: var(--color1, #ffac30)" stroke-linejoin="miter" stroke-linecap="butt" stroke-miterlimit="4" stroke-width="1.5055" d="M31.6 11.547l-12.781 8.401-12.796-8.28"></path>
</symbol>
<symbol id="icon-oclock" viewBox="0 0 32 32">
<path fill="none" stroke="#ffac30" style="stroke: var(--color1, #ffac30)" stroke-linejoin="miter" stroke-linecap="butt" stroke-miterlimit="4" stroke-width="1.5238" d="M31.238 16c0 8.416-6.822 15.238-15.238 15.238s-15.238-6.822-15.238-15.238c0-8.416 6.822-15.238 15.238-15.238s15.238 6.822 15.238 15.238z"></path>
<path fill="none" stroke="#ffac30" style="stroke: var(--color1, #ffac30)" stroke-linejoin="miter" stroke-linecap="butt" stroke-miterlimit="4" stroke-width="1.5238" d="M16 16.762v-12.19"></path>
<path fill="none" stroke="#ffac30" style="stroke: var(--color1, #ffac30)" stroke-linejoin="miter" stroke-linecap="butt" stroke-miterlimit="4" stroke-width="1.5238" d="M15.238 16h7.619"></path>
</symbol>
<symbol id="icon-pencil" viewBox="0 0 32 32">
<path fill="#ffac30" style="fill: var(--color1, #ffac30)" d="M9.577 15.329c0.14 0.14 0.323 0.21 0.507 0.21s0.367-0.070 0.507-0.21c0.28-0.28 0.28-0.734 0-1.014l-1.334-1.334 1.911-1.911c0.28-0.28 0.28-0.734 0-1.013s-0.734-0.28-1.013 0l-1.911 1.911-1.678-1.678 1.911-1.911c0.28-0.28 0.28-0.734 0-1.014s-0.734-0.28-1.014 0l-1.911 1.911-3.82-3.819 3.746-3.721 8.846 8.846c0.28 0.28 0.734 0.28 1.014 0s0.28-0.734 0-1.013l-9.351-9.351c-0.279-0.279-0.732-0.28-1.012-0.002l-4.763 4.731c-0.135 0.134-0.211 0.317-0.212 0.507s0.075 0.373 0.21 0.508l9.367 9.367z"></path>
<path fill="#ffac30" style="fill: var(--color1, #ffac30)" d="M31.79 26.021l-9.359-9.359c-0.28-0.28-0.734-0.28-1.014 0s-0.28 0.734 0 1.014l8.852 8.852-3.734 3.734-3.821-3.821 1.911-1.911c0.28-0.28 0.28-0.734 0-1.013s-0.734-0.28-1.013 0l-1.911 1.911-1.678-1.678 1.911-1.911c0.28-0.28 0.28-0.734 0-1.014s-0.734-0.28-1.014 0l-1.911 1.911-1.326-1.326c-0.28-0.28-0.734-0.28-1.014 0s-0.28 0.734 0 1.014l9.359 9.359c0.14 0.14 0.323 0.21 0.507 0.21s0.367-0.070 0.507-0.21l4.747-4.747c0.28-0.28 0.28-0.734 0-1.014z"></path>
<path fill="#ffac30" style="fill: var(--color1, #ffac30)" d="M4.538 4.442c-0.271 0.271-0.42 0.631-0.42 1.014s0.149 0.743 0.42 1.013c0.271 0.271 0.631 0.42 1.013 0.42s0.743-0.149 1.014-0.42c0.559-0.559 0.559-1.468 0-2.027-0.271-0.271-0.631-0.42-1.014-0.42s-0.743 0.149-1.013 0.42z"></path>
<path fill="#ffac30" style="fill: var(--color1, #ffac30)" d="M27.55 27.454c0.271-0.271 0.42-0.631 0.42-1.013s-0.149-0.743-0.42-1.014c-0.271-0.271-0.631-0.42-1.014-0.42s-0.743 0.149-1.013 0.42c-0.271 0.271-0.42 0.631-0.42 1.014s0.149 0.743 0.42 1.013c0.271 0.271 0.631 0.42 1.013 0.42s0.743-0.149 1.014-0.42z"></path>
<path fill="#ffac30" style="fill: var(--color1, #ffac30)" d="M28.839 8.229c0-0 0-0 0-0s0-0 0-0l2.053-2.053c1.397-1.397 1.397-3.67 0-5.067-0.676-0.676-1.576-1.048-2.534-1.048s-1.858 0.372-2.534 1.048l-2.052 2.052c-0 0-0 0-0.001 0.001s-0 0.001-0.001 0.001l-2.533 2.533c-0 0-0 0-0 0s-0 0-0 0l-16.425 16.425c-0.001 0.001-0.002 0.003-0.004 0.004-0.022 0.022-0.042 0.046-0.061 0.071-0.004 0.005-0.008 0.011-0.012 0.016-0.016 0.023-0.032 0.047-0.045 0.072-0.002 0.003-0.004 0.005-0.005 0.008l-2.669 5.051c-0.001 0.003-0.003 0.005-0.004 0.008l-1.87 3.538c-0.147 0.278-0.095 0.619 0.127 0.842 0.138 0.138 0.321 0.21 0.507 0.21 0.114 0 0.229-0.027 0.335-0.083l3.539-1.87c0.002-0.001 0.005-0.002 0.007-0.004l5.051-2.669c0.001-0.001 0.003-0.002 0.004-0.002 0.028-0.015 0.054-0.032 0.079-0.050 0.004-0.003 0.009-0.006 0.013-0.010 0.025-0.019 0.049-0.039 0.071-0.061 0.001-0.001 0.003-0.003 0.005-0.004l18.959-18.959zM4.453 28.47l-0.923-0.923 1.509-2.855 0.31 1.413c0.001 0.004 0.002 0.007 0.003 0.011 0.006 0.027 0.014 0.053 0.023 0.079 0.002 0.005 0.003 0.010 0.005 0.015 0.011 0.029 0.024 0.057 0.039 0.084 0.002 0.004 0.005 0.008 0.007 0.012 0.013 0.022 0.027 0.044 0.042 0.065 0.004 0.006 0.009 0.012 0.013 0.018 0.018 0.024 0.038 0.047 0.060 0.069s0.045 0.041 0.069 0.060c0.006 0.005 0.012 0.009 0.018 0.013 0.021 0.015 0.043 0.030 0.066 0.043 0.004 0.002 0.008 0.005 0.012 0.007 0.028 0.015 0.056 0.028 0.085 0.039 0.005 0.002 0.010 0.003 0.014 0.005 0.026 0.009 0.053 0.017 0.079 0.024 0.003 0.001 0.007 0.002 0.010 0.003l1.413 0.31-2.855 1.509zM7.481 25.532l2.634-2.634c0.28-0.28 0.28-0.734 0-1.013s-0.734-0.28-1.013 0l-2.634 2.634-0.364-1.662 15.641-15.641 1.013 1.013-11.928 11.928c-0.28 0.28-0.28 0.734 0 1.014 0.14 0.14 0.323 0.21 0.507 0.21s0.367-0.070 0.507-0.21l11.928-11.928 1.013 1.013-15.641 15.641-1.662-0.364zM24.278 4.681l3.040 3.040-1.52 1.52-3.040-3.040 1.52-1.52zM26.838 2.122c0.405-0.405 0.945-0.628 1.52-0.628s1.115 0.223 1.52 0.628c0.838 0.838 0.838 2.202 0 3.040l-1.546 1.546-3.040-3.040 1.546-1.546zM2.829 28.873l0.298 0.298-0.631 0.334 0.334-0.631z"></path>
</symbol>
<symbol id="icon-completion" viewBox="0 0 28 32">
<path fill="#ffac30" style="fill: var(--color2, #ffac30)" d="M20.665 31.52h-15.593q-1.014 0-1.728-0.718-0.714-0.714-0.714-1.725v-17.471h0.376v17.471q0 0.857 0.605 1.462t1.462 0.605h15.593v0.376zM2.638 11.614l-0.007-0.008c0-0.105 0.083-0.188 0.188-0.188s0.188 0.083 0.188 0.188l-0.007 0.008h-0.361zM20.658 31.152l0.008-0.008c0.105 0 0.188 0.083 0.188 0.188s-0.083 0.188-0.188 0.188l-0.008-0.008v-0.361z"></path>
<path fill="none" stroke="#ffac30" style="stroke: var(--color2, #ffac30)" stroke-linejoin="round" stroke-linecap="round" stroke-miterlimit="4" stroke-width="0.3757" d="M0.188 13.523l13.902-10.52 14.203 10.52"></path>
<path fill="none" stroke="#ffac30" style="stroke: var(--color2, #ffac30)" stroke-linejoin="miter" stroke-linecap="butt" stroke-miterlimit="4" stroke-width="0.3757" d="M20.29 19.122c0 3.528-2.86 6.387-6.387 6.387s-6.387-2.86-6.387-6.387c0-3.528 2.86-6.387 6.387-6.387s6.387 2.86 6.387 6.387z"></path>
<path fill="#ffac30" style="fill: var(--color2, #ffac30)" d="M13.903 14.801c-2.386 0-4.321 1.935-4.321 4.321s1.934 4.321 4.321 4.321c2.386 0 4.321-1.935 4.321-4.321s-1.935-4.321-4.321-4.321zM16.294 17.49c0.071 0.075 0.068 0.194-0.008 0.265l-3.312 3.128-1.455-1.374c-0.075-0.071-0.079-0.19-0.008-0.266s0.19-0.079 0.266-0.008l1.197 1.131 3.054-2.884c0.075-0.071 0.194-0.068 0.266 0.008z"></path>
<path fill="#ffac30" style="fill: var(--color2, #ffac30)" d="M25.583 28.413l-6.098-6.098-2.39 2.39 6.098 6.098c0.658 0.661 1.728 0.661 2.39 0s0.661-1.732 0-2.39zM25.317 28.676c0.515 0.515 0.515 1.349 0 1.86-0.511 0.515-1.345 0.515-1.86 0l-5.831-5.831 1.86-1.86 5.831 5.831z"></path>
<path fill="none" stroke="#ffac30" style="stroke: var(--color2, #ffac30)" stroke-linejoin="miter" stroke-linecap="butt" stroke-miterlimit="4" stroke-width="0.3757" d="M25.175 11.044v14.653"></path>
</symbol>
<symbol id="icon-icon-5" viewBox="0 0 28 32">
<path fill="#ffac30" style="fill: var(--color2, #ffac30)" d="M3.329 9.988h-0.925q-0.999 0-1.702-0.707-0.703-0.703-0.703-1.698v-5.179q0-0.999 0.703-1.702t1.702-0.703h19.977q0.995 0 1.698 0.703 0.707 0.703 0.707 1.702v5.179q0 0.995-0.707 1.698-0.703 0.707-1.698 0.707h-9.803v-0.37h9.803q0.84 0 1.435-0.599 0.599-0.596 0.599-1.435v-5.179q0-0.843-0.599-1.439-0.596-0.596-1.435-0.596h-19.977q-0.843 0-1.439 0.596t-0.596 1.439v5.179q0 0.84 0.596 1.435 0.596 0.599 1.439 0.599h0.925v0.37z"></path>
<path fill="none" stroke="#ffac30" style="stroke: var(--color2, #ffac30)" stroke-linejoin="miter" stroke-linecap="butt" stroke-miterlimit="4" stroke-width="0.3699" d="M17.017 20.347v9.249c0 1.226-0.994 2.22-2.22 2.22h-2.22c-1.226 0-2.22-0.994-2.22-2.22v-9.249c0-1.226 0.994-2.22 2.22-2.22h2.22c1.226 0 2.22 0.994 2.22 2.22z"></path>
<path fill="#ffac30" style="fill: var(--color2, #ffac30)" d="M8.879 8.509v7.214q0 0.562-0.218 1.077-0.211 0.499-0.596 0.884t-0.884 0.596q-0.514 0.218-1.077 0.218-0.566 0-1.080-0.218-0.499-0.211-0.884-0.596t-0.596-0.884q-0.215-0.514-0.215-1.077v-15.353h0.37v15.353q0 0.488 0.189 0.932 0.181 0.433 0.514 0.766t0.766 0.514q0.444 0.192 0.936 0.192 0.488 0 0.936-0.192 0.429-0.181 0.762-0.514t0.514-0.766q0.192-0.444 0.192-0.932v-7.214h0.37z"></path>
<path fill="#ffac30" style="fill: var(--color2, #ffac30)" d="M8.509 7.569v4.824q0 0.411 0.159 0.792 0.152 0.363 0.437 0.644 0.281 0.281 0.644 0.437 0.381 0.163 0.795 0.163 0.411 0 0.792-0.163 0.363-0.155 0.644-0.437 0.285-0.281 0.437-0.644 0.163-0.381 0.163-0.792v-12.023h-0.37v12.023q0 0.337-0.133 0.647-0.126 0.296-0.355 0.529-0.233 0.229-0.529 0.355-0.311 0.133-0.647 0.133-0.34 0-0.651-0.133-0.296-0.126-0.529-0.355-0.229-0.233-0.355-0.529-0.129-0.311-0.129-0.647v-4.824h-0.37z"></path>
<path fill="none" stroke="#ffac30" style="stroke: var(--color2, #ffac30)" stroke-linejoin="miter" stroke-linecap="butt" stroke-miterlimit="4" stroke-width="0.3699" d="M24.416 4.994h3.145c0 1.232 0 4.029 0 5.364 0 1.665-0.925 2.035-2.775 2.59s-7.584 2.22-8.879 2.59c-1.295 0.37-2.22 0.925-2.22 2.59"></path>
<path fill="#ffac30" style="fill: var(--color2, #ffac30)" d="M10.173 20.902h7.029v2.96h-7.029v-2.96z"></path>
</symbol>
<symbol id="icon-contract" viewBox="0 0 32 32">
<path fill="#ffac30" style="fill: var(--color2, #ffac30)" d="M19.191 13.562l7.998 6.146q0.343 0.26 0.555 0.631 0.208 0.357 0.271 0.767 0.059 0.409-0.035 0.812-0.094 0.416-0.343 0.767-0.257 0.361-0.631 0.59-0.361 0.222-0.78 0.291-0.416 0.069-0.829-0.024-0.43-0.094-0.787-0.35l-2.293-1.644 0.201-0.281 2.293 1.641q0.302 0.215 0.663 0.298 0.347 0.076 0.697 0.017 0.354-0.059 0.656-0.243 0.312-0.194 0.527-0.496 0.212-0.295 0.291-0.642 0.080-0.34 0.028-0.683t-0.225-0.645q-0.18-0.309-0.468-0.531l-7.998-6.146 0.212-0.274zM18.99 13.836h-0.010c-0.076-0.059-0.094-0.166-0.031-0.243 0.059-0.076 0.163-0.090 0.243-0.031v0.010l-0.201 0.264zM22.327 21.547h-0.010c-0.080-0.055-0.097-0.163-0.042-0.243 0.059-0.076 0.163-0.094 0.243-0.038l0.003 0.010-0.194 0.271z"></path>
<path fill="none" stroke="#ffac30" style="stroke: var(--color2, #ffac30)" stroke-linejoin="miter" stroke-linecap="butt" stroke-miterlimit="4" stroke-width="0.3469" d="M19.084 13.701c-1.561-1.214-2.948-0.347-5.029-0.347-1.561 0-2.948-0.867-3.122-2.255-0.128-1.041 3.989-1.387 5.723-1.561s3.122 0.694 4.336 1.041c0.971 0.274 2.775-0.465 3.642-0.867"></path>
<path fill="#ffac30" style="fill: var(--color2, #ffac30)" d="M23.132 21.689l1.578 1.165q0.305 0.225 0.499 0.548 0.187 0.312 0.243 0.673 0.059 0.364-0.021 0.718-0.083 0.368-0.305 0.676-0.222 0.312-0.541 0.51-0.312 0.191-0.673 0.257-0.361 0.062-0.718-0.014-0.368-0.080-0.683-0.295l-2.178-1.512 0.194-0.284 2.182 1.509q0.257 0.177 0.558 0.243 0.291 0.062 0.586 0.010t0.548-0.208q0.264-0.163 0.444-0.416 0.177-0.253 0.246-0.552 0.066-0.291 0.021-0.586-0.049-0.295-0.201-0.552-0.16-0.264-0.409-0.447l-1.578-1.165 0.208-0.277zM22.934 21.966h-0.010c-0.076-0.055-0.094-0.163-0.035-0.243 0.055-0.076 0.163-0.094 0.243-0.035v0.010l-0.198 0.267zM20.34 24.412l-0.007 0.003c-0.080-0.055-0.101-0.163-0.045-0.243s0.16-0.097 0.239-0.042l0.003 0.007-0.191 0.274z"></path>
<path fill="#ffac30" style="fill: var(--color2, #ffac30)" d="M20.572 24.138l1.946 1.405q0.267 0.194 0.437 0.472 0.16 0.271 0.208 0.583 0.049 0.316-0.028 0.621-0.076 0.316-0.274 0.579-0.194 0.264-0.475 0.427-0.274 0.156-0.586 0.198-0.312 0.045-0.614-0.035-0.316-0.080-0.576-0.281l-2.324-1.783 0.212-0.274 2.324 1.783q0.205 0.156 0.451 0.219 0.236 0.062 0.482 0.028 0.243-0.035 0.458-0.156 0.219-0.128 0.371-0.333 0.156-0.205 0.215-0.454 0.059-0.239 0.021-0.486-0.035-0.243-0.163-0.454-0.132-0.219-0.34-0.371l-1.946-1.405 0.201-0.281zM20.381 24.419h-0.010c-0.080-0.055-0.097-0.163-0.038-0.243 0.055-0.076 0.163-0.094 0.239-0.038l0.003 0.010-0.194 0.271zM18.297 26.323h-0.010c-0.076-0.059-0.094-0.166-0.035-0.243 0.062-0.076 0.166-0.090 0.246-0.031v0.010l-0.201 0.264z"></path>
<path fill="#ffac30" style="fill: var(--color2, #ffac30)" d="M18.494 26.049l1.599 1.197q0.267 0.201 0.434 0.489 0.163 0.274 0.208 0.593t-0.031 0.631q-0.083 0.323-0.281 0.59-0.198 0.26-0.475 0.427-0.271 0.16-0.579 0.212-0.312 0.049-0.617-0.017-0.316-0.069-0.583-0.253l-1.783-1.238 0.198-0.284 1.783 1.235q0.212 0.149 0.461 0.201 0.239 0.055 0.486 0.014 0.246-0.038 0.458-0.166 0.219-0.128 0.375-0.336 0.156-0.212 0.219-0.465 0.062-0.246 0.028-0.499-0.038-0.25-0.163-0.468-0.132-0.225-0.343-0.385l-1.599-1.197 0.208-0.277zM18.297 26.323l-0.010 0.003c-0.076-0.059-0.094-0.166-0.035-0.243 0.059-0.080 0.166-0.094 0.243-0.035l0.003 0.007-0.201 0.267zM16.392 28.678h-0.007c-0.080-0.055-0.101-0.16-0.045-0.239s0.163-0.101 0.243-0.045v0.010l-0.191 0.274z"></path>
<path fill="none" stroke="#ffac30" style="stroke: var(--color2, #ffac30)" stroke-linejoin="miter" stroke-linecap="butt" stroke-miterlimit="4" stroke-width="0.3469" d="M5.449 20.104l2.6-2.132c0.736-0.604 1.822-0.496 2.426 0.24v0c0.604 0.736 0.496 1.822-0.24 2.426l-2.6 2.132c-0.736 0.604-1.822 0.496-2.426-0.24v0c-0.604-0.736-0.496-1.822 0.24-2.426z"></path>
<path fill="none" stroke="#ffac30" style="stroke: var(--color2, #ffac30)" stroke-linejoin="miter" stroke-linecap="butt" stroke-miterlimit="4" stroke-width="0.3469" d="M9.957 25.387l2.416-1.981c0.741-0.608 1.834-0.499 2.442 0.241s0.499 1.834-0.241 2.442l-2.416 1.981c-0.741 0.608-1.834 0.499-2.442-0.241s-0.499-1.834 0.241-2.442z"></path>
<path fill="none" stroke="#ffac30" style="stroke: var(--color2, #ffac30)" stroke-linejoin="miter" stroke-linecap="butt" stroke-miterlimit="4" stroke-width="0.3469" d="M12.063 28.192l1.583-1.298c0.698-0.572 1.728-0.471 2.3 0.227v0c0.572 0.698 0.471 1.728-0.227 2.3l-1.583 1.298c-0.698 0.572-1.728 0.471-2.3-0.227v0c-0.572-0.698-0.471-1.728 0.227-2.3z"></path>
<path fill="none" stroke="#ffac30" style="stroke: var(--color2, #ffac30)" stroke-linejoin="miter" stroke-linecap="butt" stroke-miterlimit="4" stroke-width="0.3469" d="M7.665 22.786l3.919-3.214c0.741-0.608 1.834-0.499 2.442 0.241s0.499 1.834-0.241 2.442l-3.919 3.214c-0.741 0.608-1.834 0.499-2.442-0.241s-0.499-1.834 0.241-2.442z"></path>
<path fill="#ffac30" style="fill: var(--color2, #ffac30)" d="M0.576 17.706l5.535-9.586c0.318-0.551 1.023-0.74 1.574-0.422s0.74 1.023 0.422 1.574l-5.535 9.586c-0.318 0.551-1.023 0.74-1.574 0.422s-0.74-1.023-0.422-1.574z"></path>
<path fill="#ffac30" style="fill: var(--color2, #ffac30)" d="M31.74 17.386l-5.363-9.29c-0.366-0.633-1.175-0.85-1.808-0.485s-0.85 1.175-0.485 1.808l5.363 9.29c0.366 0.633 1.175 0.85 1.808 0.485s0.85-1.175 0.485-1.808z"></path>
<path fill="none" stroke="#ffac30" style="stroke: var(--color2, #ffac30)" stroke-linejoin="miter" stroke-linecap="butt" stroke-miterlimit="4" stroke-width="0.3469" d="M2.782 18.21c0.694 0 1.561 0.173 2.775 1.734"></path>
<path fill="none" stroke="#ffac30" style="stroke: var(--color2, #ffac30)" stroke-linejoin="miter" stroke-linecap="butt" stroke-miterlimit="4" stroke-width="0.3469" d="M29.316 18.21c-0.607 0-1.367 0.135-2.428 1.387"></path>
<path fill="none" stroke="#ffac30" style="stroke: var(--color2, #ffac30)" stroke-linejoin="miter" stroke-linecap="butt" stroke-miterlimit="4" stroke-width="0.3469" d="M7.516 9.719l3.469 1.041"></path>
<path fill="none" stroke="#ffac30" style="stroke: var(--color2, #ffac30)" stroke-linejoin="miter" stroke-linecap="butt" stroke-miterlimit="4" stroke-width="0.3469" d="M15.965 4.336v-4.162"></path>
<path fill="none" stroke="#ffac30" style="stroke: var(--color2, #ffac30)" stroke-linejoin="miter" stroke-linecap="butt" stroke-miterlimit="4" stroke-width="0.3469" d="M11.483 6.163l-2.428-3.815"></path>
<path fill="none" stroke="#ffac30" style="stroke: var(--color2, #ffac30)" stroke-linejoin="miter" stroke-linecap="butt" stroke-miterlimit="4" stroke-width="0.3469" d="M20.793 6.163l2.428-3.815"></path>
</symbol>
<symbol id="icon-drafting" viewBox="0 0 32 32">
<path fill="#ffac30" style="fill: var(--color2, #ffac30)" d="M19.361 28.532h-15.485q-0.758 0-1.455-0.281-0.677-0.273-1.206-0.779-0.53-0.501-0.844-1.158-0.318-0.681-0.363-1.439v-0.004q-0.045-0.815 0.24-1.573 0.273-0.73 0.811-1.3t1.251-0.884q0.742-0.326 1.561-0.326v0.408q-0.734 0-1.394 0.293-0.64 0.281-1.121 0.791t-0.726 1.162q-0.257 0.677-0.216 1.406v0.004q0.037 0.681 0.326 1.288 0.277 0.587 0.754 1.039 0.473 0.448 1.076 0.693 0.624 0.253 1.304 0.253h15.485v0.408z"></path>
<path fill="#ffac30" style="fill: var(--color2, #ffac30)" d="M0 24.66v-18.954q0-0.787 0.302-1.508 0.293-0.693 0.831-1.227 0.534-0.538 1.231-0.832 0.717-0.306 1.508-0.306h0.204v19.361h-0.408v-19.157h0.204v0.204q-0.705 0-1.349 0.273-0.624 0.265-1.105 0.742-0.477 0.481-0.742 1.101-0.269 0.644-0.269 1.349v18.954h-0.408z"></path>
<path fill="none" stroke="#ffac30" style="stroke: var(--color2, #ffac30)" stroke-linejoin="miter" stroke-linecap="butt" stroke-miterlimit="4" stroke-width="0.4076" d="M3.668 7.136h15.081"></path>
<path fill="none" stroke="#ffac30" style="stroke: var(--color2, #ffac30)" stroke-linejoin="miter" stroke-linecap="butt" stroke-miterlimit="4" stroke-width="0.4076" d="M24.864 7.136h4.484"></path>
<path fill="none" stroke="#ffac30" style="stroke: var(--color2, #ffac30)" stroke-linejoin="miter" stroke-linecap="butt" stroke-miterlimit="4" stroke-width="0.4076" d="M29.144 18.753v-11.413"></path>
<path fill="#ffac30" style="fill: var(--color2, #ffac30)" d="M11.604 14.054l12.705-12.705q0.33-0.334 0.766-0.509 0.42-0.167 0.872-0.167t0.872 0.167q0.436 0.175 0.77 0.509 0.33 0.334 0.509 0.77 0.167 0.416 0.167 0.872 0 0.452-0.167 0.872-0.179 0.432-0.509 0.766l-12.705 12.705-0.289-0.289 12.705-12.705q0.273-0.273 0.42-0.632 0.139-0.342 0.139-0.717t-0.139-0.721q-0.147-0.359-0.42-0.632-0.277-0.277-0.632-0.42-0.346-0.139-0.721-0.139t-0.721 0.139q-0.355 0.143-0.632 0.42l-12.701 12.705-0.289-0.289z"></path>
<path fill="#ffac30" style="fill: var(--color2, #ffac30)" d="M10.056 18.876l4.83-1.545-3.285-3.281-1.545 4.826z"></path>
<path fill="#ffac30" style="fill: var(--color2, #ffac30)" d="M10.532 18.725l4.353-1.394-3.285-3.281-0.139 0.436-1.251 3.913-0.155 0.477 0.477-0.151zM10.687 18.248l1.101-3.436 2.336 2.336-3.436 1.101z"></path>
<path fill="#ffac30" style="fill: var(--color2, #ffac30)" d="M27.395 4.492l-1.17 1.17-2.992-2.992 1.17-1.174c0.827-0.823 2.164-0.823 2.992 0 0.827 0.827 0.827 2.168 0 2.996z"></path>
<path fill="none" stroke="#ffac30" style="stroke: var(--color2, #ffac30)" stroke-linejoin="miter" stroke-linecap="butt" stroke-miterlimit="4" stroke-width="0.4076" d="M22.562 3.528l2.853 2.853"></path>
<path fill="none" stroke="#ffac30" style="stroke: var(--color2, #ffac30)" stroke-linejoin="miter" stroke-linecap="butt" stroke-miterlimit="4" stroke-width="0.4076" d="M11.965 14.125l2.853 2.853"></path>
<path fill="none" stroke="#ffac30" style="stroke: var(--color2, #ffac30)" stroke-linejoin="miter" stroke-linecap="butt" stroke-miterlimit="4" stroke-width="0.4076" d="M8.152 18.957h13.451"></path>
<path fill="#ffac30" style="fill: var(--color2, #ffac30)" d="M22.679 24.721l0.289 0.289 9.375-9.375-0.143-0.147h-0.204v16.304h0.204v-0.204h-16.304v0.204l0.143 0.147 5.299-5.299-0.289-0.289-5.645 5.645h17.001v-16.997l-9.725 9.721zM22.968 24.998v0.012c-0.082 0.077-0.208 0.077-0.289 0-0.082-0.082-0.082-0.208 0-0.289h0.012l0.277 0.277zM21.049 26.364v-0.012c0.082-0.082 0.208-0.082 0.289 0s0.082 0.208 0 0.289h-0.012l-0.277-0.277z"></path>
<path fill="#ffac30" style="fill: var(--color2, #ffac30)" d="M28.532 28.532v-4.891l-4.891 4.891h4.891zM24.623 28.125l3.501-3.497v3.497h-3.501z"></path>
<path fill="none" stroke="#ffac30" style="stroke: var(--color2, #ffac30)" stroke-linejoin="miter" stroke-linecap="butt" stroke-miterlimit="4" stroke-width="0.4076" d="M30.163 20.995h2.038"></path>
<path fill="none" stroke="#ffac30" style="stroke: var(--color2, #ffac30)" stroke-linejoin="miter" stroke-linecap="butt" stroke-miterlimit="4" stroke-width="0.4076" d="M30.163 23.848h2.038"></path>
<path fill="none" stroke="#ffac30" style="stroke: var(--color2, #ffac30)" stroke-linejoin="miter" stroke-linecap="butt" stroke-miterlimit="4" stroke-width="0.4076" d="M30.163 25.886h2.038"></path>
<path fill="none" stroke="#ffac30" style="stroke: var(--color2, #ffac30)" stroke-linejoin="miter" stroke-linecap="butt" stroke-miterlimit="4" stroke-width="0.4076" d="M30.163 28.332h2.038"></path>
</symbol>
<symbol id="icon-aplication" viewBox="0 0 26 32">
<path fill="#ffac30" style="fill: var(--color2, #ffac30)" d="M17.548 7.742v14.452q0 0.926-0.657 1.579-0.654 0.657-1.579 0.657h-13.075q-0.929 0-1.583-0.657-0.654-0.654-0.654-1.579v-19.957q0-0.929 0.654-1.583t1.583-0.654h10.323v0.344h-10.323q-0.785 0-1.339 0.554t-0.554 1.339v19.957q0 0.781 0.554 1.335 0.554 0.557 1.339 0.557h13.075q0.781 0 1.335-0.557 0.557-0.554 0.557-1.335v-14.452h0.344z"></path>
<path fill="#ffac30" style="fill: var(--color2, #ffac30)" d="M26.151 15.656v14.108q0 0.926-0.657 1.579-0.654 0.657-1.579 0.657h-13.075q-0.929 0-1.583-0.657-0.654-0.654-0.654-1.579v-5.505h0.344v5.505q0 0.781 0.554 1.335 0.554 0.557 1.338 0.557h13.075q0.781 0 1.335-0.557 0.557-0.554 0.557-1.335v-14.108h0.344z"></path>
<path fill="#ffac30" style="fill: var(--color2, #ffac30)" d="M12.559 4.989h5.161l-5.161-4.817v4.817z"></path>
<path fill="none" stroke="#ffac30" style="stroke: var(--color2, #ffac30)" stroke-linejoin="round" stroke-linecap="butt" stroke-miterlimit="4" stroke-width="0.3441" d="M12.559 4.989v-4.817l5.161 4.817h-5.161z"></path>
<path fill="#ffac30" style="fill: var(--color2, #ffac30)" d="M20.817 12.559h5.161l-5.161-4.817v4.817z"></path>
<path fill="none" stroke="#ffac30" style="stroke: var(--color2, #ffac30)" stroke-linejoin="round" stroke-linecap="butt" stroke-miterlimit="4" stroke-width="0.3441" d="M20.817 12.559v-4.817l5.161 4.817h-5.161z"></path>
<path fill="none" stroke="#ffac30" style="stroke: var(--color2, #ffac30)" stroke-linejoin="miter" stroke-linecap="butt" stroke-miterlimit="4" stroke-width="0.3441" d="M20.817 7.914h-3.441"></path>
<path fill="none" stroke="#ffac30" style="stroke: var(--color2, #ffac30)" stroke-linejoin="miter" stroke-linecap="butt" stroke-miterlimit="4" stroke-width="0.3441" d="M13.935 20.301h-10.323"></path>
<path fill="none" stroke="#ffac30" style="stroke: var(--color2, #ffac30)" stroke-linejoin="miter" stroke-linecap="butt" stroke-miterlimit="4" stroke-width="0.3441" d="M13.935 17.548h-10.323"></path>
<path fill="none" stroke="#ffac30" style="stroke: var(--color2, #ffac30)" stroke-linejoin="miter" stroke-linecap="butt" stroke-miterlimit="4" stroke-width="0.3441" d="M13.935 14.452h-10.323"></path>
</symbol>
<symbol id="icon-arrow-white" viewBox="0 0 170 32">
<path fill="none" stroke="#fff" style="stroke: var(--color1, #fff)" stroke-linejoin="miter" stroke-linecap="butt" stroke-miterlimit="4" stroke-width="1.4655" d="M0 16h139.22"></path>
<path fill="none" stroke="#fff" style="stroke: var(--color1, #fff)" stroke-linejoin="miter" stroke-linecap="butt" stroke-miterlimit="4" stroke-width="1.4655" d="M145.082 0.601l23.448 15.387-23.448 15.387"></path>
</symbol>
<symbol id="icon-call" viewBox="0 0 32 32">
<path fill="none" stroke="#fff" style="stroke: var(--color1, #fff)" stroke-linejoin="miter" stroke-linecap="butt" stroke-miterlimit="4" stroke-width="0.4" d="M16 27.8c-6.517 0-11.8-5.283-11.8-11.8s5.283-11.8 11.8-11.8c6.517 0 11.8 5.283 11.8 11.8s-5.283 11.8-11.8 11.8z"></path>
<path fill="none" stroke="#fff" style="stroke: var(--color1, #fff)" stroke-linejoin="miter" stroke-linecap="butt" stroke-miterlimit="4" stroke-width="0.4" d="M16 31.8c-8.726 0-15.8-7.074-15.8-15.8s7.074-15.8 15.8-15.8c8.726 0 15.8 7.074 15.8 15.8s-7.074 15.8-15.8 15.8z"></path>
<path fill="#fff" style="fill: var(--color1, #fff)" opacity="0.15" d="M16 24c-4.418 0-8-3.582-8-8s3.582-8 8-8c4.418 0 8 3.582 8 8s-3.582 8-8 8z"></path>
<path fill="#fff" style="fill: var(--color1, #fff)" d="M18.512 17.74c0-0.024 0-0.048-0.012-0.076-0.024-0.072-0.2-0.152-0.272-0.188-0.204-0.112-0.408-0.224-0.608-0.344-0.096-0.056-0.208-0.164-0.32-0.164-0.216 0-0.536 0.648-0.728 0.648-0.096 0-0.22-0.088-0.308-0.14-0.648-0.36-1.1-0.812-1.46-1.46-0.052-0.084-0.14-0.212-0.14-0.308 0-0.192 0.648-0.508 0.648-0.728 0-0.112-0.108-0.224-0.164-0.316-0.12-0.2-0.228-0.408-0.344-0.612-0.036-0.072-0.116-0.248-0.188-0.272-0.028-0.012-0.052-0.012-0.076-0.012-0.128 0-0.38 0.060-0.496 0.112-0.176 0.076-0.292 0.276-0.38 0.436-0.112 0.212-0.18 0.424-0.18 0.664 0 0.332 0.136 0.632 0.244 0.936 0.080 0.216 0.176 0.428 0.296 0.624 0.376 0.608 1.108 1.34 1.716 1.716 0.196 0.12 0.408 0.216 0.624 0.296 0.304 0.112 0.604 0.248 0.936 0.248 0.24 0 0.452-0.068 0.664-0.184 0.16-0.088 0.36-0.204 0.436-0.38 0.052-0.116 0.112-0.368 0.112-0.496z"></path>
</symbol>
</defs>
</svg>
