<svg aria-hidden="true" style="position: absolute; width: 0; height: 0; overflow: hidden;" version="1.1" xmlns="http://www.w3.org/2000/svg" xmlns:xlink="http://www.w3.org/1999/xlink">
<defs>
<symbol id="icon-phone" viewBox="0 0 32 32">
<path fill="#ffac30" style="fill: var(--color1, #ffac30)" d="M30.393 23.949c-0.138-0.43-1.151-0.89-1.565-1.089-1.166-0.66-2.363-1.304-3.513-1.979-0.522-0.322-1.181-0.936-1.826-0.936-1.243 0-3.084 3.713-4.188 3.713-0.552 0-1.273-0.522-1.764-0.798-3.744-2.087-6.336-4.664-8.408-8.408-0.291-0.491-0.798-1.212-0.798-1.764 0-1.12 3.713-2.946 3.713-4.188 0-0.644-0.614-1.304-0.936-1.841-0.69-1.151-1.319-2.332-1.979-3.513-0.199-0.399-0.66-1.411-1.089-1.55-0.138-0.061-0.292-0.061-0.43-0.061-0.736 0-2.179 0.322-2.854 0.629-1.013 0.43-1.672 1.58-2.179 2.501-0.66 1.212-1.043 2.455-1.043 3.836 0 1.902 0.767 3.636 1.411 5.37 0.445 1.258 1.013 2.47 1.703 3.605 2.163 3.483 6.367 7.702 9.865 9.865 1.135 0.69 2.347 1.243 3.59 1.703 1.749 0.629 3.483 1.412 5.385 1.412 1.381 0 2.608-0.384 3.82-1.043 0.936-0.522 2.087-1.166 2.516-2.179 0.307-0.675 0.629-2.117 0.629-2.854 0-0.153 0-0.291-0.061-0.43zM8.592 0.153q0.476 0.184 0.859 0.598 0.23 0.245 0.46 0.598 0.215 0.353 0.522 0.982 0.031 0.061 0.046 0.107 0.23 0.384 0.644 1.151 0.859 1.55 1.289 2.271 0.046 0.092 0.23 0.338 0.368 0.537 0.552 0.859 0.384 0.736 0.384 1.442 0 0.031 0 0.061-0.015 0.629-0.384 1.243-0.245 0.399-0.66 0.813-0.291 0.307-0.721 0.675-0.245 0.215-0.752 0.614-0.828 0.675-1.089 0.936 0 0 0 0.015 0.092 0.184 0.291 0.522 0.138 0.199 0.199 0.322 1.458 2.624 3.329 4.495t4.511 3.329q0.107 0.061 0.307 0.184 0.338 0.215 0.522 0.307 0 0 0 0 0.276-0.276 0.951-1.105 0.399-0.491 0.598-0.736 0.384-0.43 0.675-0.721 0.43-0.414 0.828-0.66 0.614-0.368 1.243-0.384 0.031 0 0.061 0 0.706 0 1.442 0.384 0.322 0.169 0.859 0.552 0.245 0.169 0.307 0.215 0.752 0.445 2.301 1.304 0.752 0.414 1.151 0.629 0.046 0.015 0.107 0.046 0.629 0.322 0.982 0.537 0.353 0.23 0.598 0.46 0.414 0.384 0.598 0.859 0.107 0.276 0.138 0.598 0.015 0.153 0.015 0.384 0 0.721-0.23 1.78-0.245 1.043-0.522 1.672-0.445 1.043-1.55 1.887-0.368 0.291-0.859 0.583-0.291 0.184-0.782 0.46-1.089 0.598-2.163 0.89-0.782 0.23-1.596 0.307-0.399 0.031-0.798 0.031-1.289 0-2.762-0.399-0.552-0.153-1.227-0.399-0.384-0.138-1.135-0.414-0.522-0.199-0.782-0.291-2.148-0.782-3.882-1.841-1.365-0.859-2.869-2.087-1.442-1.181-2.838-2.562-1.396-1.396-2.577-2.838-1.227-1.504-2.071-2.884-1.059-1.718-1.841-3.866-0.092-0.261-0.292-0.782-0.291-0.752-0.414-1.151-0.245-0.66-0.399-1.227-0.399-1.458-0.399-2.746 0-0.414 0.031-0.813 0.077-0.798 0.291-1.58 0.307-1.074 0.905-2.179 0.276-0.491 0.46-0.782 0.292-0.476 0.583-0.859 0.844-1.089 1.841-1.519 0.66-0.307 1.703-0.537 1.074-0.23 1.795-0.23 0.23 0 0.384 0.015 0.307 0.031 0.598 0.138z"></path>
</symbol>
<symbol id="icon-map-pin" viewBox="0 0 23 32">
<path fill="#ffac30" style="fill: var(--color1, #ffac30)" d="M12.26 30.971c-0.264 0.339-0.527 0.678-0.791 1.029-0.276-0.351-0.54-0.69-0.803-1.029-5.71-7.379-10.667-13.453-10.667-19.501 0-6.337 5.133-11.47 11.47-11.47s11.47 5.133 11.47 11.47c0 6.049-4.969 12.122-10.679 19.501zM11.47 29.942q0.314-0.414 0.69-0.891 1.318-1.707 1.945-2.522 1.042-1.355 1.807-2.409 1.895-2.573 3.049-4.543 1.343-2.271 2.008-4.204 0.715-2.058 0.715-3.903 0-1.167-0.251-2.271-0.201-0.878-0.552-1.707-0.364-0.853-0.866-1.619-0.565-0.878-1.33-1.631-0.753-0.753-1.631-1.33-0.753-0.502-1.606-0.866-0.841-0.351-1.707-0.54-1.117-0.251-2.271-0.251-1.167 0-2.271 0.251-0.878 0.188-1.707 0.54-0.853 0.364-1.619 0.866-0.878 0.577-1.631 1.33t-1.33 1.631q-0.502 0.766-0.866 1.619-0.351 0.828-0.54 1.707-0.251 1.104-0.251 2.271 0 1.845 0.703 3.903 0.665 1.933 2.008 4.204 1.167 1.97 3.049 4.543 0.778 1.054 1.807 2.409 0.627 0.816 1.945 2.522 0.376 0.477 0.703 0.891z"></path>
<path fill="none" stroke="#ffac30" style="stroke: var(--color1, #ffac30)" stroke-linejoin="miter" stroke-linecap="butt" stroke-miterlimit="4" stroke-width="1.2549" d="M16.278 11.472c0 2.655-2.152 4.806-4.806 4.806s-4.806-2.152-4.806-4.806c0-2.655 2.152-4.806 4.806-4.806s4.806 2.152 4.806 4.806z"></path>
</symbol>
<symbol id="icon-email" viewBox="0 0 38 32">
<path fill="none" stroke="#ffac30" style="stroke: var(--color1, #ffac30)" stroke-linejoin="miter" stroke-linecap="butt" stroke-miterlimit="4" stroke-width="1.5055" d="M6.775 5.654h24.087c3.326 0 6.022 2.696 6.022 6.022v13.549c0 3.326-2.696 6.022-6.022 6.022h-24.087c-3.326 0-6.022-2.696-6.022-6.022v-13.549c0-3.326 2.696-6.022 6.022-6.022z"></path>
<path fill="none" stroke="#ffac30" style="stroke: var(--color1, #ffac30)" stroke-linejoin="miter" stroke-linecap="butt" stroke-miterlimit="4" stroke-width="1.5055" d="M31.6 11.547l-12.781 8.401-12.796-8.28"></path>
</symbol>
<symbol id="icon-oclock" viewBox="0 0 32 32">
<path fill="none" stroke="#ffac30" style="stroke: var(--color1, #ffac30)" stroke-linejoin="miter" stroke-linecap="butt" stroke-miterlimit="4" stroke-width="1.5238" d="M31.238 16c0 8.416-6.822 15.238-15.238 15.238s-15.238-6.822-15.238-15.238c0-8.416 6.822-15.238 15.238-15.238s15.238 6.822 15.238 15.238z"></path>
<path fill="none" stroke="#ffac30" style="stroke: var(--color1, #ffac30)" stroke-linejoin="miter" stroke-linecap="butt" stroke-miterlimit="4" stroke-width="1.5238" d="M16 16.762v-12.19"></path>
<path fill="none" stroke="#ffac30" style="stroke: var(--color1, #ffac30)" stroke-linejoin="miter" stroke-linecap="butt" stroke-miterlimit="4" stroke-width="1.5238" d="M15.238 16h7.619"></path>
</symbol>
</defs>
</svg>
