<svg aria-hidden="true" style="position: absolute; width: 0; height: 0; overflow: hidden;" version="1.1" xmlns="http://www.w3.org/2000/svg" xmlns:xlink="http://www.w3.org/1999/xlink">
<defs>
<symbol id="icon-pencil" viewBox="0 0 32 32">
<path fill="#ffac30" style="fill: var(--color1, #ffac30)" d="M9.577 15.329c0.14 0.14 0.323 0.21 0.507 0.21s0.367-0.070 0.507-0.21c0.28-0.28 0.28-0.734 0-1.014l-1.334-1.334 1.911-1.911c0.28-0.28 0.28-0.734 0-1.013s-0.734-0.28-1.013 0l-1.911 1.911-1.678-1.678 1.911-1.911c0.28-0.28 0.28-0.734 0-1.014s-0.734-0.28-1.014 0l-1.911 1.911-3.82-3.819 3.746-3.721 8.846 8.846c0.28 0.28 0.734 0.28 1.014 0s0.28-0.734 0-1.013l-9.351-9.351c-0.279-0.279-0.732-0.28-1.012-0.002l-4.763 4.731c-0.135 0.134-0.211 0.317-0.212 0.507s0.075 0.373 0.21 0.508l9.367 9.367z"></path>
<path fill="#ffac30" style="fill: var(--color1, #ffac30)" d="M31.79 26.021l-9.359-9.359c-0.28-0.28-0.734-0.28-1.014 0s-0.28 0.734 0 1.014l8.852 8.852-3.734 3.734-3.821-3.821 1.911-1.911c0.28-0.28 0.28-0.734 0-1.013s-0.734-0.28-1.013 0l-1.911 1.911-1.678-1.678 1.911-1.911c0.28-0.28 0.28-0.734 0-1.014s-0.734-0.28-1.014 0l-1.911 1.911-1.326-1.326c-0.28-0.28-0.734-0.28-1.014 0s-0.28 0.734 0 1.014l9.359 9.359c0.14 0.14 0.323 0.21 0.507 0.21s0.367-0.070 0.507-0.21l4.747-4.747c0.28-0.28 0.28-0.734 0-1.014z"></path>
<path fill="#ffac30" style="fill: var(--color1, #ffac30)" d="M4.538 4.442c-0.271 0.271-0.42 0.631-0.42 1.014s0.149 0.743 0.42 1.013c0.271 0.271 0.631 0.42 1.013 0.42s0.743-0.149 1.014-0.42c0.559-0.559 0.559-1.468 0-2.027-0.271-0.271-0.631-0.42-1.014-0.42s-0.743 0.149-1.013 0.42z"></path>
<path fill="#ffac30" style="fill: var(--color1, #ffac30)" d="M27.55 27.454c0.271-0.271 0.42-0.631 0.42-1.013s-0.149-0.743-0.42-1.014c-0.271-0.271-0.631-0.42-1.014-0.42s-0.743 0.149-1.013 0.42c-0.271 0.271-0.42 0.631-0.42 1.014s0.149 0.743 0.42 1.013c0.271 0.271 0.631 0.42 1.013 0.42s0.743-0.149 1.014-0.42z"></path>
<path fill="#ffac30" style="fill: var(--color1, #ffac30)" d="M28.839 8.229c0-0 0-0 0-0s0-0 0-0l2.053-2.053c1.397-1.397 1.397-3.67 0-5.067-0.676-0.676-1.576-1.048-2.534-1.048s-1.858 0.372-2.534 1.048l-2.052 2.052c-0 0-0 0-0.001 0.001s-0 0.001-0.001 0.001l-2.533 2.533c-0 0-0 0-0 0s-0 0-0 0l-16.425 16.425c-0.001 0.001-0.002 0.003-0.004 0.004-0.022 0.022-0.042 0.046-0.061 0.071-0.004 0.005-0.008 0.011-0.012 0.016-0.016 0.023-0.032 0.047-0.045 0.072-0.002 0.003-0.004 0.005-0.005 0.008l-2.669 5.051c-0.001 0.003-0.003 0.005-0.004 0.008l-1.87 3.538c-0.147 0.278-0.095 0.619 0.127 0.842 0.138 0.138 0.321 0.21 0.507 0.21 0.114 0 0.229-0.027 0.335-0.083l3.539-1.87c0.002-0.001 0.005-0.002 0.007-0.004l5.051-2.669c0.001-0.001 0.003-0.002 0.004-0.002 0.028-0.015 0.054-0.032 0.079-0.050 0.004-0.003 0.009-0.006 0.013-0.010 0.025-0.019 0.049-0.039 0.071-0.061 0.001-0.001 0.003-0.003 0.005-0.004l18.959-18.959zM4.453 28.47l-0.923-0.923 1.509-2.855 0.31 1.413c0.001 0.004 0.002 0.007 0.003 0.011 0.006 0.027 0.014 0.053 0.023 0.079 0.002 0.005 0.003 0.010 0.005 0.015 0.011 0.029 0.024 0.057 0.039 0.084 0.002 0.004 0.005 0.008 0.007 0.012 0.013 0.022 0.027 0.044 0.042 0.065 0.004 0.006 0.009 0.012 0.013 0.018 0.018 0.024 0.038 0.047 0.060 0.069s0.045 0.041 0.069 0.060c0.006 0.005 0.012 0.009 0.018 0.013 0.021 0.015 0.043 0.030 0.066 0.043 0.004 0.002 0.008 0.005 0.012 0.007 0.028 0.015 0.056 0.028 0.085 0.039 0.005 0.002 0.010 0.003 0.014 0.005 0.026 0.009 0.053 0.017 0.079 0.024 0.003 0.001 0.007 0.002 0.010 0.003l1.413 0.31-2.855 1.509zM7.481 25.532l2.634-2.634c0.28-0.28 0.28-0.734 0-1.013s-0.734-0.28-1.013 0l-2.634 2.634-0.364-1.662 15.641-15.641 1.013 1.013-11.928 11.928c-0.28 0.28-0.28 0.734 0 1.014 0.14 0.14 0.323 0.21 0.507 0.21s0.367-0.070 0.507-0.21l11.928-11.928 1.013 1.013-15.641 15.641-1.662-0.364zM24.278 4.681l3.040 3.040-1.52 1.52-3.040-3.040 1.52-1.52zM26.838 2.122c0.405-0.405 0.945-0.628 1.52-0.628s1.115 0.223 1.52 0.628c0.838 0.838 0.838 2.202 0 3.040l-1.546 1.546-3.040-3.040 1.546-1.546zM2.829 28.873l0.298 0.298-0.631 0.334 0.334-0.631z"></path>
</symbol>
</defs>
</svg>
